# xmcd CD database file
#
# Track frame offsets:
#	150
#	28829
#	52396
#	79903
#	106731
#	145383
#	170765
#	197857
#	226984
#	253951
#	282268
#	303330
#
# Disc length: 4357 seconds
#
# Revision: 0
# Processed by: cddbd v1.5.1PL0 Copyright (c) Steve Scherf et al.
# Submitted via: CDex 1.51
#
DISCID=b511030c
DTITLE=James Zollar - Soaring With Bird
DYEAR=1992
DGENRE=Jazz
TTITLE0=Barbados
TTITLE1=Big Foot
TTITLE2=Chasing The Bird
TTITLE3=Dewey Square
TTITLE4=I didn't Know What Time It Was
TTITLE5=If I Should Lose You
TTITLE6=Moose The Mooch
TTITLE7=My Little Suede Shoes
TTITLE8=Parker's Mood
TTITLE9=Si Si
TTITLE10=Steeplechase
TTITLE11=The Song Is You
EXTD=YEAR: 1992
EXTT0=
EXTT1=
EXTT2=
EXTT3=
EXTT4=
EXTT5=
EXTT6=
EXTT7=
EXTT8=
EXTT9=
EXTT10=
EXTT11=
PLAYORDER=
